<?xml version="1.0" encoding="UTF-8"?>
<svg id="Layer_1" data-name="Layer 1" xmlns="http://www.w3.org/2000/svg" viewBox="0 0 120 123.02">
  <defs>
    <style>
      .cls-1 {
        fill: #f40;
      }
    </style>
  </defs>
  <path class="cls-1" d="M106.43,37.67c-2.09-.08-.13-2-4.09-3.89-1.41-.67-2.14-1.45-3.53-2.83l-1.08,5.86c5.88,2.36,3.31,1.32,8.75,1.4l7.58.1c2.83.04,5.94,1.98,5.94,5.25v74.91c0,2.54-2.09,4.56-4.55,4.56H5.08C1.92,123.02,0,121.07,0,117.96V43.06c0-2.54,1.69-4.61,4.19-4.71l6.36-.25c-1.03-1.23-1.94-2.17-2.22-3.2-.72-2.65,2.79-5.31,3.66-7.98-1.66-10.71-3.28-18.22,7.4-23.98,13.31-7.17,13.59,1.47,35.38-2.17,3.21-.54,5.89-.18,7.86,2.67l4.24,6.13c1.31,1.9,3.67,2.01,5.6,1.38.42.07,1.12,1.39.83,1.72l-1.32,1.5c-1.82,2.06,1.9,3.58.49,7.36-.91,2.45-.7,4.38.19,7.3-6.25,3.19-10.95-2-14.94-6.2-1.46,4.79-5.07,7.39-5.88,12.31l5.24,3.29h21.47c-1.92-7.8,2.2-3.43,2.94-12.73.4-5.02,4.57-8.39,9.49-7.83,4.08.47,10.89,2.69,11.37,1.58l.88-2.06c.9-.53,2.15.8,2.73,1.94l2.41-1.72,2.25,7.05c.2.62.18,1.84-.03,2.36-.17.43-1.43.53-1.9.35l-3.3-1.26-2.11,4.09c3.08,1.88,3.72,4.63,3.14,7.65ZM29.94,38.16l-9.97-13.7.66,5.11-5.09,5.99c6.54,4.04,6.61,2.55,14.4,2.6ZM40.57,37.05c1.23.83,2.27,1.33,3.25,1.18-.44-3.68-.25-7.23.07-11.2-1.88,1.6-7.32,3.39-8.94,1.01-.19,1.92-.54,4.84.03,6.58.72,2.18,4.09,1.42,5.58,2.43ZM94.51,37.24l.27-7.71-3.67,1.13c2.52,1.57.79,6.49,3.4,6.59ZM90.75,38.34l-3.9-6.98,1.95-.85-2.53-.18c-2.2,2.45-4.13,4.26-6.72,6.69.72.34,2.31,1.17,3.12,1.18l8.07.13ZM21.39,61.8l-.04-13.49-2.86.08-.29,8.04-6.35-8.13-2.68.07-.1,13.63h2.89s.12-8.59.12-8.59l6.49,8.47c.7.06,2.15.01,2.81-.08ZM32.74,59.39c.66.52.92,2.59,1.58,2.52l2.57-.29-5.62-13.42c-.78-.11-2.21-.09-2.99.03l-5.55,13.32c.75.24,2.16.45,2.7.22s.7-1.74,1.18-2.36c1.18-.97,4.75-1.11,6.14-.02ZM42.62,61.58v-10.44s4.26-.26,4.26-.26l-.25-2.63-10.87.04c-.43.49-.54,2.64.1,2.66l3.71.12.09,10.75c1.01-.03,2.34-.11,2.95-.23ZM51.64,61.94l-.03-13.64-2.97.15v13.44s3,.04,3,.04ZM60.23,62.15c4.81.44,8.18-3.11,8.07-7.3-.11-4.02-3.51-7.17-7.79-6.85-3.85.29-6.63,3.23-6.76,6.83s2.3,6.94,6.48,7.32ZM81.76,61.44v-13.06s-2.91.05-2.91.05l-.31,7.92-6.22-8.04-2.92.11-.02,13.56,2.89-.06.37-8.15,6.23,7.87c.46.58,2.88.54,2.88-.2ZM93.34,59.57c.62.97.92,2.36,1.5,2.43.64.07,2-.15,2.56-.38l-5.62-13.27c-.72-.29-2.61-.21-3.09.36l-5.38,12.86c.37.48,2.56.73,2.89.13l1.23-2.32c1.24-.73,4.96-.95,5.9.2ZM109.42,59.43l-6.76-.08-.07-11.03-2.92.15-.12,13.55h9.94s-.07-2.6-.07-2.6ZM109.93,83.71c2.84-10.4-11.94-7.99-11.74-12.41.15-3.26,6.23-1.73,8.88.19l2.55-3.65c-3.1-2.29-6.65-3.26-10.54-2.68-2.67.4-4.89,2.35-5.55,4.65s-.38,5.38,1.76,6.87c4.13,2.88,10.13,2.26,10.12,5,0,3.99-7.55,2.27-10.24-.24l-2.83,3.55c4.99,4.66,15.83,5.18,17.59-1.27ZM14.35,81.58c2.84-.11,4.45-.14,6.33-.43,4.37-.67,6.88-4.29,6.65-8.32s-3.38-7.24-7.83-7.25l-10.37-.04.02,22.72,5.08-.09.13-6.59ZM40.77,83.17l2.05,5.1,5.19-.15-9.62-22.53c-1.66-.26-3.55-.25-4.97.12l-9.58,22.46,5.26.07,2.13-5.09h9.54ZM63.35,88.42l5.71-.14-5.28-8.07c4.09-1.63,5.31-5.07,4.65-8.88-.55-3.18-3.63-5.78-7.43-5.8l-11.51-.03.03,22.74,4.97-.02.02-7.23,3.95.09,4.9,7.34ZM91.9,88.08l-9.48-12.93,8.95-9.49-5.72-.14-9.16,9.75-.17-9.7-4.94-.02v22.66s4.87,0,4.87,0l.26-6.66c.03-.83,1.68-2.16,2.52-2.85l6.92,9.42c1.84.18,3.88.15,5.93-.04ZM16.36,93.22c.23-.34-.53-1.31-1-1.49-2.19-.87-4.93-.17-6.02,1.8-1.16,2.08-.55,4.79,1.31,6.05,1.68,1.14,4.91,1.03,5.74-1.05.76-1.9-3.75,1.02-5.05-.64-.82-1.05-1.02-2.54-.57-3.35,1.66-3.01,4.55.27,5.59-1.33ZM41.05,100.28c1.81.2,3.18-.8,3.32-2.52.2-2.45-2.15-2.3-4.49-3.55-.21-.11.12-.95.36-.97s1.04-.02,1.27.04l1.59.43c.31.08.79-.98.59-1.23-.85-1.07-3.78-1.69-5.22-.41-.65.58-.91,2.46-.41,3.15.42.58,1.71,1.19,2.53,1.48l1.54.55c.22.08-.02,1.37-.25,1.34l-3.8-.58c-.42,1.88,1.58,2.12,2.97,2.27ZM77.03,99.37c.3.36.91.76,1.19.89.19.09.74-.7.65-.92l-3.02-7.17c-.19-.45-1.08-1.09-1.48-.98-.32.09-.95.66-1.09,1l-2.96,7.21c-.12.29.83,1.06,1.01.85l.88-1.01c1.22-1.39,3.38-1.61,4.82.12ZM83.19,99.52l.25-6.1,2.27-.38c.29-.05.04-1.3-.04-1.62l-6.79-.03-.13,1.7c.6.1,2.5.35,2.51.92l.12,5.32c0,.28.6.83.85.94s.93-.44.94-.76ZM22.61,100.27c2.82-.39,4.25-2.68,3.97-5.01-.27-2.17-2.1-3.92-4.58-3.9-2.84.03-4.78,2.17-4.61,4.89.15,2.33,2.21,4.43,5.22,4.02ZM35.77,99.59l-.03-7.41c0-.35-.78-1.02-1.04-.86-.18.11-.72.62-.74.83l-.31,4.09-3.13-3.87c-.52-.64-1.34-.96-2.55-.86l.1,8.28c0,.46,1.74.23,1.76-.21l.21-4.7,3.78,4.83c.34.43,1.94.38,1.94-.12ZM51.71,95.67c-.26-.33-1.19-.82-1.61-.82l-2.25-.02c-.31,0-.28-.7-.34-1.56l3.94-.16c.25,0,1.04-.61.88-.79s-.71-.68-.99-.68l-5.69.04-.02,8.67,6.53-.03c.15-.34.15-1.72-.23-1.73l-4.51-.19c-1.79-2.72,5.81-.8,4.27-2.75ZM61.39,99.82l-1.29-2.5c.81-1.07,1.46-2.14,1.54-2.97.31-3.33-5.32-3.12-7.37-2.83l-.02,7.79c0,.39.9,1.18,1.11.94,1.63-1.86.34-3.38,1.39-2.99.4.15,1.27.72,1.54,1.07l1.23,1.61c.3.39,2.12.02,1.87-.11ZM68.78,92.12l-2.08,5.16-2.01-4.93c-.13-.33-.67-.86-.94-1.06s-1.39.68-1.25,1.01l3.21,7.84c.19.43,1.91.11,2.13-.45l3.16-8.06c-.86-.25-1.99-.06-2.21.5ZM89.4,99.48l-.06-7.59c0-.55-1.84-.5-1.84.02l.02,8.09c.61.16,1.89-.04,1.89-.52ZM93.47,91.84c-2.61,1.24-2.9,4.3-1.77,6.27,1.22,2.14,3.75,2.64,5.58,1.79,2.56-1.19,3.29-3.87,2.32-5.97-1.05-2.27-3.63-3.28-6.13-2.1ZM109.48,99.84l.2-7.65c0-.29-1.19-1.02-1.4-.82l-.43.41-.36,4.61-3.09-4c-.39-.5-1.65-1.15-2.44-.76-.05,2.36-.04,6.02.04,8.15.02.44,1.68.25,1.72-.18l.37-4.3,3.18,4.05c.32.41,2.21,1.04,2.22.5ZM16.25,111.73c.48.59,1.06,1.83,1.51,1.72l1.62-.39-3.85-9.06c-.18-.43-.9-1.01-1.28-1.19-.29-.13-1.35.32-1.5.68l-4.09,9.62c.67.21,1.82.41,2.06,0l.95-1.53c.85-.76,3.84-.77,4.57.13ZM26.36,113.1c1.35-.71,1.81-2.59,1.5-3.72-.66-2.39-4.64-1.78-5.19-3.3.57-2.43,2.88.21,4.54-.66.39-.2.18-1.72-.23-1.9-1.28-.55-3.73-.75-5.08-.08-1.19.59-1.65,2.52-1.32,3.69.69,2.46,6.12,1.82,4.9,3.81-.94,1.53-3.27-.64-4.86-.13-.34.11-.54,1.38-.25,1.59,1.2.85,4.2,1.63,5.99.69ZM35.42,113.05c1.24-.63,1.82-2.48,1.48-3.7-.6-2.15-4.07-1.73-5.38-3.19,1.07-2.58,2.9.13,4.72-.74.39-.19.17-1.71-.25-1.89-1.31-.54-3.72-.76-5.08-.08-1.2.59-1.65,2.52-1.32,3.69.62,2.19,4.1,1.6,5.29,3.26-.62,1.46-2.18,1.02-3.32.69l-1.59-.47c-.35-.1-.84,1.13-.83,1.43,1.39,1.26,4.12,2.1,6.3.99ZM41.45,103.34c-3.06,1.1-3.94,4.59-2.94,6.97,1.22,2.91,4.35,3.85,7.05,2.89s3.89-4.16,3.09-6.76c-.9-2.94-4-4.25-7.2-3.1ZM59.54,105.06c.15-.41-.56-1.24-.98-1.44-2.55-1.25-5.2-.66-6.93,1.25s-1.56,4.76-.02,6.79c1.5,1.98,4.35,2.33,6.84,1.35.47-.18,1.16-1.03,1.14-1.48-.12-2.15-3.92,1.64-5.96-.93-1.03-1.31-.95-3.22-.06-4.32,2.07-2.58,5.17.93,5.97-1.22ZM63.86,112.85v-9.65s-2.39-.14-2.39-.14l.08,9.92c.05.56,2.31.49,2.31-.13ZM72.92,111.68c.42.47.93,1.85,1.4,1.76l1.76-.34-3.54-8.61c-.33-.8-2.31-2.48-2.78-1.4l-4.4,9.99c.53.21,1.76.51,2.02.14l1.15-1.62c.73-.8,3.64-.75,4.39.09ZM80.19,105.34l2.78-.35c.45-.06.28-1.7-.08-1.96l-8.07.04c-.24.71-.13,2,.39,2.03l2.42.14.2,7.6c.02.64,2.2.69,2.22.08l.15-7.59ZM86.88,112.89l-.03-9.6c-.36-.36-2.22-.27-2.22.27l.04,9.34c0,.61,2.2.55,2.2-.01ZM94.73,113.48c3.16-.51,4.8-3.55,4.44-5.93-.45-3.05-3.11-4.95-6.14-4.5-3.21.48-5.08,3.27-4.53,6.22.5,2.65,2.92,4.74,6.23,4.21ZM109.57,112.99l.07-9.86-2.26.04-.44,5.67-4.45-5.54c-.21-.26-1.7-.23-2.11-.12l.05,9.77c0,.5,2.03.53,2.07-.01l.35-5.54,4.33,5.37c.35.44,2.15.75,2.38.24Z"/>
</svg>